<svg xmlns="http://www.w3.org/2000/svg" version="1.1" xmlns:xlink="http://www.w3.org/1999/xlink" xmlns:svgjs="http://svgjs.dev/svgjs" width="1000" height="1000" viewBox="0 0 1000 1000"><rect width="1000" height="1000" fill="#ffffff"></rect><g transform="matrix(0.7,0,0,0.7,149.5757575757575,377.243577248816)"><svg viewBox="0 0 396 139" data-background-color="#ffffff" preserveAspectRatio="xMidYMid meet" height="351" width="1000" xmlns="http://www.w3.org/2000/svg" xmlns:xlink="http://www.w3.org/1999/xlink"><g id="tight-bounds" transform="matrix(1,0,0,1,0.24000000000003752,-0.05293950991222118)"><svg viewBox="0 0 395.5199999999999 139.10579064177685" height="139.10579064177685" width="395.5199999999999"><g><svg viewBox="0 0 652.313148512352 229.4208542421054" height="139.10579064177685" width="395.5199999999999"><g transform="matrix(1,0,0,1,256.793148512352,65.46988058256069)"><svg viewBox="0 0 395.52 98.48109307698402" height="98.48109307698402" width="395.52"><g id="textblocktransform"><svg viewBox="0 0 395.52 98.48109307698402" height="98.48109307698402" width="395.52" id="textblock"><g><rect width="75.54432000000001" height="5.228108205617096" y="82.4563057292725" fill="#262626" data-fill-palette-color="tertiary"></rect><rect width="75.54432000000001" height="5.228108205617096" y="82.4563057292725" x="319.97567999999995" fill="#262626" data-fill-palette-color="tertiary"></rect></g><g><svg viewBox="0 0 395.52 57.9734794520548" height="57.9734794520548" width="395.52"><g transform="matrix(1,0,0,1,0,0)"><svg width="395.52" viewBox="2 -35.3 291.98 42.8" height="57.9734794520548" data-palette-color="#2f8b6d"><path d="M34.55-34.1L30.45-33.7 30.45-0.8 34.55-0.4 34.55 0 22.25 0 22.25-0.4 26.6-0.8 26.6-17.75 9.95-17.75 9.95-0.8 14.3-0.4 14.3 0 2 0 2-0.4 6.1-0.8 6.1-33.7 2-34.1 2-34.5 14.3-34.5 14.3-34.1 9.95-33.7 9.95-18.55 26.6-18.55 26.6-33.7 22.25-34.1 22.25-34.5 34.55-34.5 34.55-34.1ZM66.05-0.9L70.2-0.4 70.2 0 57.95 0 57.95-0.4 62.05-0.9 57.35-13.7 45.25-13.7 41.1-2.65Q40.9-2.1 40.9-1.75L40.9-1.75Q40.9-1.2 41.22-0.98 41.55-0.75 42.4-0.65L42.4-0.65 45.45-0.4 45.45 0 34.8 0 34.8-0.4 37.6-0.65Q38.85-0.75 39.37-1.15 39.9-1.55 40.3-2.65L40.3-2.65 52.55-35.3 53.45-35.3 66.05-0.9ZM45.55-14.5L57.05-14.5 51.45-29.75 51.25-29.75 45.55-14.5ZM101.1-0.4L101.8-0.4 101.8 0 96.65 0Q95.45 0 94.85-0.35 94.25-0.7 93.6-1.7L93.6-1.7 85.95-14.05Q85.25-15.2 84.77-15.48 84.3-15.75 83.1-15.75L83.1-15.75 79.4-15.75 79.4-0.8 83.75-0.4 83.75 0 71.45 0 71.45-0.4 75.55-0.8 75.55-33.7 71.45-34.1 71.45-34.5 84.1-34.5Q90-34.5 93.1-32.13 96.2-29.75 96.2-25.25L96.2-25.25Q96.2-21.75 94.3-19.5 92.4-17.25 88.8-16.4L88.8-16.4 88.85-16.4 98-2.1Q98.65-1.1 99.27-0.75 99.9-0.4 101.1-0.4L101.1-0.4ZM83.95-33.9L79.4-33.9 79.4-16.5 83.95-16.5Q87.95-16.5 89.87-18.63 91.8-20.75 91.8-25.15L91.8-25.15Q91.8-29.6 89.85-31.75 87.9-33.9 83.95-33.9L83.95-33.9ZM125.29-33.85Q126.09-33.8 126.44-33.55 126.79-33.3 126.79-32.8L126.79-32.8Q126.79-32.35 126.59-31.85L126.59-31.85 116.44-4.75 116.24-4.75 105.64-33.7 109.99-34.1 109.99-34.5 97.49-34.5 97.49-34.1 101.59-33.7 114.24 0.8 115.14 0.8 127.39-31.85Q127.79-33 128.32-33.38 128.84-33.75 130.09-33.85L130.09-33.85 132.89-34.1 132.89-34.5 122.24-34.5 122.24-34.1 125.29-33.85ZM158.34-10.55L158.89-10.5 157.64 0 133.14 0 133.14-0.4 137.24-0.8 137.24-33.7 133.14-34.1 133.14-34.5 157.69-34.5 158.39-25.1 157.89-25.05 155.09-32.05Q154.64-33.2 154.12-33.55 153.59-33.9 152.39-33.9L152.39-33.9 141.09-33.9 141.09-18.55 148.49-18.55Q149.69-18.55 150.19-18.95 150.69-19.35 150.89-20.5L150.89-20.5 151.74-24.55 152.34-24.55 152.34-11.75 151.74-11.75 150.89-15.8Q150.69-16.95 150.19-17.35 149.69-17.75 148.49-17.75L148.49-17.75 141.09-17.75 141.09-0.6 152.29-0.6Q153.49-0.6 154.04-0.98 154.59-1.35 155.04-2.45L155.04-2.45 158.34-10.55ZM175.64 0.8Q178.74 0.8 181.21-0.5 183.69-1.8 185.09-4.08 186.49-6.35 186.49-9.25L186.49-9.25Q186.49-11.85 185.36-13.63 184.24-15.4 182.41-16.6 180.59-17.8 177.59-19.15L177.59-19.15Q174.24-20.7 172.41-21.8 170.59-22.9 169.56-24.4 168.54-25.9 168.54-28.1L168.54-28.1Q168.54-31.15 170.39-32.93 172.24-34.7 175.34-34.7L175.34-34.7Q180.49-34.7 182.99-29.55L182.99-29.55Q184.24-27 185.04-23.65L185.04-23.65 185.54-23.8 185.04-34.7 184.39-34.7 183.19-32.3Q181.14-33.9 179.36-34.6 177.59-35.3 175.54-35.3L175.54-35.3Q172.59-35.3 170.26-34.08 167.94-32.85 166.61-30.68 165.29-28.5 165.29-25.75L165.29-25.75Q165.29-23.05 166.51-21.18 167.74-19.3 169.59-18.13 171.44-16.95 174.19-15.75L174.19-15.75Q177.54-14.3 179.39-13.2 181.24-12.1 182.31-10.55 183.39-9 183.39-6.75L183.39-6.75Q183.39-3.55 181.36-1.68 179.34 0.2 175.74 0.2L175.74 0.2Q171.54 0.2 168.99-2.65L168.99-2.65Q167.74-4.05 166.96-5.95 166.19-7.85 165.44-11.25L165.44-11.25 164.99-11.15 165.64 0.8 166.29 0.8 167.34-1.95Q168.89-0.65 171.09 0.08 173.29 0.8 175.64 0.8L175.64 0.8ZM203.84-33.95L203.84-0.8 198.44-0.4 198.44 0 213.09 0 213.09-0.4 207.69-0.8 207.69-33.95 214.99-33.95Q216.19-33.95 216.71-33.58 217.24-33.2 217.69-32.05L217.69-32.05 220.79-24.35 221.19-24.45 220.09-35.3 219.79-35.3Q218.69-34.8 217.91-34.65 217.14-34.5 215.94-34.5L215.94-34.5 196.69-34.5Q195.49-34.5 194.71-34.65 193.94-34.8 192.84-35.3L192.84-35.3 192.54-35.3 190.59-24.45 190.99-24.35 194.44-32.05Q194.94-33.2 195.49-33.58 196.04-33.95 197.24-33.95L197.24-33.95 203.84-33.95ZM257.18-34.1L253.08-33.7 253.08-0.8 257.18-0.4 257.18 0 244.88 0 244.88-0.4 249.23-0.8 249.23-17.75 232.58-17.75 232.58-0.8 236.93-0.4 236.93 0 224.63 0 224.63-0.4 228.73-0.8 228.73-33.7 224.63-34.1 224.63-34.5 236.93-34.5 236.93-34.1 232.58-33.7 232.58-18.55 249.23-18.55 249.23-33.7 244.88-34.1 244.88-34.5 257.18-34.5 257.18-34.1ZM293.48 1.5L293.98 1.8Q292.93 4.2 290.81 5.83 288.68 7.45 286.23 7.45L286.23 7.45Q284.43 7.45 282.93 6.55 281.43 5.65 280.33 4.25L280.33 4.25Q277.68 0.8 275.23 0.8L275.23 0.8Q274.13 0.8 273.13 1.35 272.13 1.9 272.13 2.75L272.13 2.75Q272.13 3.1 272.43 3.9L272.43 3.9Q272.78 4.95 272.78 5.4L272.78 5.4Q272.78 6.25 272.18 6.88 271.58 7.5 270.68 7.5L270.68 7.5Q269.83 7.5 269.28 6.88 268.73 6.25 268.73 5.3L268.73 5.3Q268.73 3.75 270.13 2.5 271.53 1.25 273.83 0.4L273.83 0.4Q270.28-0.45 267.48-2.98 264.68-5.5 263.08-9.2 261.48-12.9 261.48-17.25L261.48-17.25Q261.48-22.25 263.56-26.38 265.63-30.5 269.26-32.9 272.88-35.3 277.23-35.3L277.23-35.3Q281.58-35.3 285.21-32.9 288.83-30.5 290.91-26.38 292.98-22.25 292.98-17.25L292.98-17.25Q292.98-12.7 291.26-8.85 289.53-5 286.46-2.5 283.38 0 279.58 0.6L279.58 0.6Q280.93 1.15 282.83 2.15L282.83 2.15Q285.33 3.35 286.73 3.88 288.13 4.4 289.53 4.4L289.53 4.4Q291.13 4.4 292.01 3.65 292.88 2.9 293.48 1.5L293.48 1.5ZM266.28-17.25Q266.28-8.9 269.13-4.35 271.98 0.2 277.23 0.2L277.23 0.2Q282.48 0.2 285.33-4.35 288.18-8.9 288.18-17.25L288.18-17.25Q288.18-25.6 285.33-30.15 282.48-34.7 277.23-34.7L277.23-34.7Q271.98-34.7 269.13-30.15 266.28-25.6 266.28-17.25L266.28-17.25Z" opacity="1" transform="matrix(1,0,0,1,0,0)" fill="#2f8b6d" class="wordmark-text-0" data-fill-palette-color="primary" id="text-0"></path></svg></g></svg></g><g transform="matrix(1,0,0,1,75.54432000000001,71.65962658717808)"><svg viewBox="0 0 244.43135999999996 26.821466489805943" height="26.821466489805943" width="244.43135999999996"><g transform="matrix(1,0,0,1,8,0)"><svg width="228.43135999999996" viewBox="4.4 -37.6 407.05 47.800000000000004" height="26.821466489805943" data-palette-color="#262626"><path d="M23.1 0L20.2 0 20.2-16.8 7.25-16.8 7.25 0 4.4 0 4.4-34.25 7.25-34.25 7.25-19.25 20.2-19.25 20.2-34.25 23.1-34.25 23.1 0ZM45.45-5Q45.45-3.4 45.87-2.63 46.3-1.85 47.2-1.4L47.2-1.4 46.6 0.55Q45 0.15 44.15-0.8 43.3-1.75 43.05-3.55L43.05-3.55Q40.7 0.55 36.5 0.55L36.5 0.55Q33.4 0.55 31.55-1.6 29.7-3.75 29.7-7.25L29.7-7.25Q29.7-11.35 32.17-13.53 34.65-15.7 39.25-15.7L39.25-15.7 42.7-15.7 42.7-18.7Q42.7-21.55 41.57-22.95 40.45-24.35 38.05-24.35L38.05-24.35Q35.3-24.35 32.05-22.95L32.05-22.95 31.25-24.95Q35-26.7 38.3-26.7L38.3-26.7Q41.9-26.7 43.67-24.68 45.45-22.65 45.45-18.9L45.45-18.9 45.45-5ZM36.95-1.7Q40.75-1.7 42.7-6.55L42.7-6.55 42.7-13.65 39.5-13.65Q36-13.65 34.32-12.1 32.65-10.55 32.65-7.35L32.65-7.35Q32.65-4.6 33.77-3.15 34.9-1.7 36.95-1.7L36.95-1.7ZM62.65-26.7Q63.55-26.7 64.65-26.4L64.65-26.4 64.15-23.8Q63.25-24.05 62.35-24.05L62.35-24.05Q60.2-24.05 58.85-22.18 57.5-20.3 56.65-16.5L56.65-16.5 56.65 0 53.85 0 53.85-26.15 56.25-26.15 56.5-20.9Q57.45-23.85 58.95-25.28 60.45-26.7 62.65-26.7L62.65-26.7ZM81.44-26.15L84.24-26.15 76.94 0 73.54 0 65.94-26.15 68.84-26.15 75.24-2.45 81.44-26.15ZM104.89-14.05Q104.89-12.95 104.79-11.95L104.79-11.95 90.49-11.95Q90.69-6.55 92.37-4.2 94.04-1.85 96.94-1.85L96.94-1.85Q98.64-1.85 99.94-2.43 101.24-3 102.64-4.25L102.64-4.25 104.04-2.6Q102.49-1.05 100.77-0.25 99.04 0.55 96.89 0.55L96.89 0.55Q92.54 0.55 90.07-2.88 87.59-6.3 87.59-12.85L87.59-12.85Q87.59-19.5 89.97-23.1 92.34-26.7 96.49-26.7L96.49-26.7Q100.59-26.7 102.74-23.48 104.89-20.25 104.89-14.05L104.89-14.05ZM102.14-14.15L102.14-14.95Q102.14-19.65 100.74-22 99.34-24.35 96.49-24.35L96.49-24.35Q90.84-24.35 90.49-14.15L90.49-14.15 102.14-14.15ZM116.94-26.7Q120.84-26.7 123.89-23.8L123.89-23.8 122.59-22.1Q121.14-23.3 119.86-23.85 118.59-24.4 116.99-24.4L116.99-24.4Q114.94-24.4 113.66-23.2 112.39-22 112.39-19.9L112.39-19.9Q112.39-18.1 113.51-17 114.64-15.9 117.64-14.8L117.64-14.8Q121.29-13.45 122.89-11.73 124.49-10 124.49-7L124.49-7Q124.49-3.55 122.21-1.5 119.94 0.55 116.54 0.55L116.54 0.55Q112.04 0.55 108.69-2.8L108.69-2.8 110.24-4.4Q111.69-3.1 113.16-2.43 114.64-1.75 116.49-1.75L116.49-1.75Q118.79-1.75 120.21-3.1 121.64-4.45 121.64-6.9L121.64-6.9Q121.64-8.45 121.14-9.43 120.64-10.4 119.44-11.18 118.24-11.95 115.99-12.8L115.99-12.8Q112.54-14.05 111.06-15.7 109.59-17.35 109.59-19.85L109.59-19.85Q109.59-22.8 111.69-24.75 113.79-26.7 116.94-26.7L116.94-26.7ZM139.69-2.9L140.84-1.1Q138.74 0.55 136.19 0.55L136.19 0.55Q133.64 0.55 132.16-1.05 130.69-2.65 130.69-5.35L130.69-5.35 130.69-23.85 127.19-23.85 127.19-26.15 130.69-26.15 130.69-32.4 133.49-32.75 133.49-26.15 138.99-26.15 138.64-23.85 133.49-23.85 133.49-5.35Q133.49-3.7 134.24-2.78 134.99-1.85 136.49-1.85L136.49-1.85Q138.09-1.85 139.69-2.9L139.69-2.9ZM171.03-26.15L163.68 0.1Q162.48 4.6 160.48 6.93 158.48 9.25 154.63 10.2L154.63 10.2 154.28 8Q156.43 7.4 157.68 6.43 158.93 5.45 159.68 4 160.43 2.55 161.18 0L161.18 0 160.13 0 152.78-26.15 155.63-26.15 161.98-2.1 168.18-26.15 171.03-26.15ZM183.58-26.7Q188.03-26.7 190.43-23.28 192.83-19.85 192.83-13.15L192.83-13.15Q192.83-6.6 190.35-3.03 187.88 0.55 183.53 0.55L183.53 0.55Q179.18 0.55 176.75-3 174.33-6.55 174.33-13.05L174.33-13.05Q174.33-19.65 176.78-23.18 179.23-26.7 183.58-26.7L183.58-26.7ZM183.58-24.3Q177.28-24.3 177.28-13.05L177.28-13.05Q177.28-1.8 183.53-1.8L183.53-1.8Q189.88-1.8 189.88-13.15L189.88-13.15Q189.88-18.9 188.28-21.6 186.68-24.3 183.58-24.3L183.58-24.3ZM214.98-26.15L214.98 0 212.58 0 212.38-4.35Q209.83 0.55 205.58 0.55L205.58 0.55Q202.68 0.55 201-1.4 199.33-3.35 199.33-6.6L199.33-6.6 199.33-26.15 202.13-26.15 202.13-6.85Q202.13-4.35 203.15-3.05 204.18-1.75 206.03-1.75L206.03-1.75Q207.98-1.75 209.48-3.18 210.98-4.6 212.18-7.1L212.18-7.1 212.18-26.15 214.98-26.15ZM232.17-26.7Q233.07-26.7 234.17-26.4L234.17-26.4 233.67-23.8Q232.77-24.05 231.87-24.05L231.87-24.05Q229.72-24.05 228.37-22.18 227.02-20.3 226.17-16.5L226.17-16.5 226.17 0 223.37 0 223.37-26.15 225.77-26.15 226.02-20.9Q226.97-23.85 228.47-25.28 229.97-26.7 232.17-26.7L232.17-26.7ZM255.82-34.25Q261.82-34.25 264.77-31.7 267.72-29.15 267.72-24L267.72-24Q267.72-13.4 255.77-13.4L255.77-13.4 253.17-13.4 253.17 0 250.32 0 250.32-34.25 255.82-34.25ZM255.82-15.8Q260.32-15.8 262.49-17.65 264.67-19.5 264.67-23.95L264.67-23.95Q264.67-28.15 262.57-30 260.47-31.85 255.87-31.85L255.87-31.85 253.17-31.85 253.17-15.8 255.82-15.8ZM281.02-26.7Q285.47-26.7 287.87-23.28 290.27-19.85 290.27-13.15L290.27-13.15Q290.27-6.6 287.79-3.03 285.32 0.55 280.97 0.55L280.97 0.55Q276.62 0.55 274.19-3 271.77-6.55 271.77-13.05L271.77-13.05Q271.77-19.65 274.22-23.18 276.67-26.7 281.02-26.7L281.02-26.7ZM281.02-24.3Q274.72-24.3 274.72-13.05L274.72-13.05Q274.72-1.8 280.97-1.8L280.97-1.8Q287.32-1.8 287.32-13.15L287.32-13.15Q287.32-18.9 285.72-21.6 284.12-24.3 281.02-24.3L281.02-24.3ZM306.06-2.9L307.21-1.1Q305.11 0.55 302.56 0.55L302.56 0.55Q300.01 0.55 298.54-1.05 297.06-2.65 297.06-5.35L297.06-5.35 297.06-23.85 293.56-23.85 293.56-26.15 297.06-26.15 297.06-32.4 299.86-32.75 299.86-26.15 305.36-26.15 305.01-23.85 299.86-23.85 299.86-5.35Q299.86-3.7 300.61-2.78 301.36-1.85 302.86-1.85L302.86-1.85Q304.46-1.85 306.06-2.9L306.06-2.9ZM326.96-14.05Q326.96-12.95 326.86-11.95L326.86-11.95 312.56-11.95Q312.76-6.55 314.44-4.2 316.11-1.85 319.01-1.85L319.01-1.85Q320.71-1.85 322.01-2.43 323.31-3 324.71-4.25L324.71-4.25 326.11-2.6Q324.56-1.05 322.84-0.25 321.11 0.55 318.96 0.55L318.96 0.55Q314.61 0.55 312.14-2.88 309.66-6.3 309.66-12.85L309.66-12.85Q309.66-19.5 312.04-23.1 314.41-26.7 318.56-26.7L318.56-26.7Q322.66-26.7 324.81-23.48 326.96-20.25 326.96-14.05L326.96-14.05ZM324.21-14.15L324.21-14.95Q324.21-19.65 322.81-22 321.41-24.35 318.56-24.35L318.56-24.35Q312.91-24.35 312.56-14.15L312.56-14.15 324.21-14.15ZM343.26-26.7Q346.11-26.7 347.68-24.68 349.26-22.65 349.26-19.15L349.26-19.15 349.26 0 346.46 0 346.46-18.8Q346.46-24.4 342.71-24.4L342.71-24.4Q339.16-24.4 336.26-18.75L336.26-18.75 336.26 0 333.46 0 333.46-26.15 335.86-26.15 336.16-21.65Q337.61-24.1 339.26-25.4 340.91-26.7 343.26-26.7L343.26-26.7ZM366.51-2.9L367.66-1.1Q365.56 0.55 363.01 0.55L363.01 0.55Q360.46 0.55 358.98-1.05 357.51-2.65 357.51-5.35L357.51-5.35 357.51-23.85 354.01-23.85 354.01-26.15 357.51-26.15 357.51-32.4 360.31-32.75 360.31-26.15 365.81-26.15 365.46-23.85 360.31-23.85 360.31-5.35Q360.31-3.7 361.06-2.78 361.81-1.85 363.31-1.85L363.31-1.85Q364.91-1.85 366.51-2.9L366.51-2.9ZM371.75-26.15L374.55-26.15 374.55 0 371.75 0 371.75-26.15ZM373.1-37.6Q374-37.6 374.55-37 375.1-36.4 375.1-35.5L375.1-35.5Q375.1-34.7 374.55-34.1 374-33.5 373.1-33.5L373.1-33.5Q372.25-33.5 371.68-34.1 371.1-34.7 371.1-35.5L371.1-35.5Q371.1-36.4 371.65-37 372.2-37.6 373.1-37.6L373.1-37.6ZM396.7-5Q396.7-3.4 397.13-2.63 397.55-1.85 398.45-1.4L398.45-1.4 397.85 0.55Q396.25 0.15 395.4-0.8 394.55-1.75 394.3-3.55L394.3-3.55Q391.95 0.55 387.75 0.55L387.75 0.55Q384.65 0.55 382.8-1.6 380.95-3.75 380.95-7.25L380.95-7.25Q380.95-11.35 383.43-13.53 385.9-15.7 390.5-15.7L390.5-15.7 393.95-15.7 393.95-18.7Q393.95-21.55 392.83-22.95 391.7-24.35 389.3-24.35L389.3-24.35Q386.55-24.35 383.3-22.95L383.3-22.95 382.5-24.95Q386.25-26.7 389.55-26.7L389.55-26.7Q393.15-26.7 394.93-24.68 396.7-22.65 396.7-18.9L396.7-18.9 396.7-5ZM388.2-1.7Q392-1.7 393.95-6.55L393.95-6.55 393.95-13.65 390.75-13.65Q387.25-13.65 385.58-12.1 383.9-10.55 383.9-7.35L383.9-7.35Q383.9-4.6 385.03-3.15 386.15-1.7 388.2-1.7L388.2-1.7ZM408.85 0.55Q407.05 0.55 405.95-0.63 404.85-1.8 404.85-3.85L404.85-3.85 404.85-36.8 407.65-37.15 407.65-3.95Q407.65-1.85 409.35-1.85L409.35-1.85Q410.05-1.85 410.75-2.15L410.75-2.15 411.45-0.15Q410.3 0.55 408.85 0.55L408.85 0.55Z" opacity="1" transform="matrix(1,0,0,1,0,0)" fill="#262626" class="slogan-text-1" data-fill-palette-color="secondary" id="text-1"></path></svg></g></svg></g></svg></g></svg></g><g><svg viewBox="0 0 229.4208542421054 229.4208542421054" height="229.4208542421054" width="229.4208542421054"><g><svg></svg></g><g id="icon-0"><svg viewBox="0 0 229.4208542421054 229.4208542421054" height="229.4208542421054" width="229.4208542421054"><g><path d="M0 114.71c0-63.353 51.358-114.71 114.71-114.71 63.353 0 114.71 51.358 114.711 114.71 0 63.353-51.358 114.71-114.711 114.711-63.353 0-114.71-51.358-114.71-114.711zM114.71 224.193c60.465 0 109.482-49.017 109.483-109.483 0-60.465-49.017-109.482-109.483-109.482-60.465 0-109.482 49.017-109.482 109.482 0 60.465 49.017 109.482 109.482 109.483z" data-fill-palette-color="tertiary" fill="#262626" stroke="transparent"></path></g><g transform="matrix(1,0,0,1,46.41017431512189,59.77877244995754)"><svg viewBox="0 0 136.60050561186162 109.86330934219032" height="109.86330934219032" width="136.60050561186162"><g><svg xmlns="http://www.w3.org/2000/svg" xmlns:xlink="http://www.w3.org/1999/xlink" version="1.1" x="0" y="0" viewBox="0 9.786 100.00034525290006 80.42699999999999" enable-background="new 0 0 100 100" xml:space="preserve" width="136.60050561186162" height="109.86330934219032" class="icon-z$-0" data-fill-palette-color="accent" id="z$-0"><path d="M49.942 52.994c13.552-0.488 27.103-0.977 40.653-1.465-2.527-4.177-3.159-7.831-7.989-8.461-7.229-0.94-14.458-1.883-21.688-2.826-14.023-1.827-28.05-3.654-42.075-5.48C20.101 36.792 39.724 53.361 49.942 52.994z" fill="#36c472" data-fill-palette-color="accent"></path><path d="M0 9.786c4.391 7.257 26.615 23.072 32.953 23.886 17.33 2.231 34.657 4.46 51.986 6.688-3.393-5.607-4.18-9.35-10.312-10.959-8.904-2.341-17.812-4.683-26.717-7.023C31.94 18.182 15.97 13.984 0 9.786z" fill="#36c472" data-fill-palette-color="accent"></path><path d="M63.108 66.207c10.413-2.219 20.826-4.439 31.241-6.66-2.028-3.346-2.034-5.359-5.827-5.189-6.158 0.273-12.314 0.549-18.471 0.822-11.343 0.506-22.686 1.014-34.028 1.518C37.298 58.064 54.94 67.947 63.108 66.207z" fill="#36c472" data-fill-palette-color="accent"></path><path d="M87.682 90.213c5.725-3.719 7.262-7.721 10.519-13.807 3.651-6.824 1.257-7.844-2.821-14.596-0.417-0.688-5.842 0.232-6.453 0.904-0.745 0.818-0.248 5.455-0.294 6.496C88.315 76.211 87.998 83.213 87.682 90.213z" fill="#36c472" data-fill-palette-color="accent"></path><path d="M86.35 63.447c-3.795 0.809-8.604 0.191-9.572 4.229-1.373 5.736-2.746 11.475-4.12 17.211C81.904 82.678 86.028 71.582 86.35 63.447z" fill="#36c472" data-fill-palette-color="accent"></path><path d="M74.666 66.121c-9.148 1.953-8.956 4.611-12.879 13.18C68.007 78.711 73.811 71.941 74.666 66.121z" fill="#36c472" data-fill-palette-color="accent"></path></svg></g></svg></g></svg></g></svg></g></svg></g><defs></defs></svg><rect width="395.5199999999999" height="139.10579064177685" fill="none" stroke="none" visibility="hidden"></rect></g></svg></g></svg>